<svg height="512pt" viewBox="-56 0 512 512" width="512pt" xmlns="http://www.w3.org/2000/svg" xmlns:xlink="http://www.w3.org/1999/xlink"><linearGradient id="a"><stop offset="0" stop-color="#662d91"/><stop offset=".437" stop-color="#3873b3"/><stop offset="1" stop-color="#00c9dd"/></linearGradient><linearGradient id="b" gradientTransform="matrix(1.099725 0 0 -1.099725 -55.429432 504.202951)" gradientUnits="userSpaceOnUse" x1="-36.2571" x2="320.7659" xlink:href="#a" y1="327.8549" y2="-29.1682"/><linearGradient id="c" gradientTransform="matrix(1.099725 0 0 -1.099725 -55.429432 504.202951)" gradientUnits="userSpaceOnUse" x1="91.7851" x2="448.8081" xlink:href="#a" y1="455.8971" y2="98.874"/><linearGradient id="d" gradientTransform="matrix(1.099725 0 0 -1.099725 -55.429432 504.202951)" gradientUnits="userSpaceOnUse" x1="115.0636" x2="472.0866" xlink:href="#a" y1="479.1756" y2="122.1526"/><linearGradient id="e" gradientTransform="matrix(1.099725 0 0 -1.099725 -55.429432 504.202951)" gradientUnits="userSpaceOnUse" x1="138.3422" x2="495.3652" xlink:href="#a" y1="502.4541" y2="145.4311"/><linearGradient id="f" gradientTransform="matrix(1.099725 0 0 -1.099725 -55.429432 504.202951)" gradientUnits="userSpaceOnUse" x1="153.8612" x2="510.8842" xlink:href="#a" y1="517.9731" y2="160.9501"/><linearGradient id="g" gradientTransform="matrix(1.099725 0 0 -1.099725 -55.429432 504.202951)" gradientUnits="userSpaceOnUse" x1="136.4023" x2="493.4253" xlink:href="#a" y1="500.5143" y2="143.4912"/><linearGradient id="h" gradientTransform="matrix(1.099725 0 0 -1.099725 -55.429432 504.202951)" gradientUnits="userSpaceOnUse" x1="124.763" x2="481.786" xlink:href="#a" y1="488.875" y2="131.8519"/><linearGradient id="i" gradientTransform="matrix(1.099725 0 0 -1.099725 -55.429432 504.202951)" gradientUnits="userSpaceOnUse" x1="-36.2469" x2="320.7761" xlink:href="#a" y1="327.8651" y2="-29.158"/><linearGradient id="j" gradientTransform="matrix(1.099725 0 0 -1.099725 -55.429432 504.202951)" gradientUnits="userSpaceOnUse" x1="84.8248" x2="441.8478" xlink:href="#a" y1="448.929" y2="91.906"/><linearGradient id="k" gradientTransform="matrix(1.099725 0 0 -1.099725 -55.429432 504.202951)" gradientUnits="userSpaceOnUse" x1="-22.5047" x2="334.5107" xlink:href="#a" y1="341.5996" y2="-15.4235"/><linearGradient id="l" gradientTransform="matrix(1.099725 0 0 -1.099725 -55.429432 504.202951)" gradientUnits="userSpaceOnUse" x1="92.4474" x2="449.4627" xlink:href="#a" y1="456.5517" y2="99.5286"/><linearGradient id="m" gradientTransform="matrix(1.099725 0 0 -1.099725 -55.429432 504.202951)" gradientUnits="userSpaceOnUse" x1="70.4464" x2="427.4695" xlink:href="#a" y1="434.5584" y2="77.5353"/><path d="m204.800781 375.46875c-37.703125 0-68.265625 30.5625-68.265625 68.265625s30.5625 68.265625 68.265625 68.265625 68.265625-30.5625 68.265625-68.265625c-.042968-37.6875-30.582031-68.226563-68.265625-68.265625zm0 119.464844c-28.277343 0-51.199219-22.921875-51.199219-51.199219s22.921876-51.199219 51.199219-51.199219c28.277344 0 51.199219 22.921875 51.199219 51.199219-.027344 28.265625-22.933594 51.171875-51.199219 51.199219zm0 0" fill="url(#b)"/><path d="m221.867188 162.132812h17.066406v51.199219h-17.066406zm0 0" fill="url(#c)"/><path d="m256 128h17.066406v85.332031h-17.066406zm0 0" fill="url(#d)"/><path d="m290.132812 93.867188h17.066407v119.464843h-17.066407zm0 0" fill="url(#e)"/><path d="m187.734375 25.601562h51.199219v17.066407h-51.199219zm0 0" fill="url(#f)"/><path d="m187.734375 51.199219h25.601563v17.066406h-25.601563zm0 0" fill="url(#g)"/><path d="m187.734375 76.800781h25.601563v17.066407h-25.601563zm0 0" fill="url(#h)"/><path d="m209.066406 435.199219h-8.53125c-2.359375 0-4.269531-1.910157-4.269531-4.265625 0-2.359375 1.910156-4.269532 4.269531-4.269532h21.332032v-17.066406h-8.535157v-8.53125h-17.066406v8.96875c-11.539063 2.367188-18.976563 13.644532-16.609375 25.183594 2.035156 9.914062 10.753906 17.039062 20.878906 17.046875h8.53125c2.359375 0 4.269532 1.910156 4.269532 4.265625 0 2.359375-1.910157 4.269531-4.269532 4.269531h-21.332031v17.066407h8.535156v8.53125h17.066407v-8.96875c11.539062-2.367188 18.976562-13.640626 16.609374-25.183594-2.035156-9.914063-10.753906-17.035156-20.878906-17.046875zm0 0" fill="url(#i)"/><path d="m264.535156 281.601562h34.132813v-34.136718h34.132812c4.710938 0 8.535157-3.820313 8.535157-8.53125v-179.199219c0-.179687-.09375-.339844-.101563-.53125-.050781-.75-.199219-1.496094-.445313-2.207031-.09375-.273438-.160156-.53125-.28125-.796875-.414062-.925781-.992187-1.773438-1.707031-2.5l-51.203125-51.199219c-.726562-.714844-1.574218-1.292969-2.507812-1.707031-.246094-.109375-.503906-.179688-.757813-.273438-.730469-.246093-1.492187-.398437-2.261719-.441406-.136718.0078125-.296874-.078125-.46875-.078125h-119.46875c-4.710937 0-8.53125 3.820312-8.53125 8.535156v34.132813h-34.136718v34.132812h-34.132813v238.933594h179.203125zm47.664063-230.402343h-22.066407v-22.066407zm-141.53125-34.132813h102.398437v42.667969c0 4.710937 3.820313 8.535156 8.535156 8.535156h42.667969v162.132813h-153.601562zm-34.132813 42.667969h17.066406v179.199219c0 4.710937 3.820313 8.535156 8.53125 8.535156h119.46875v17.066406h-145.066406zm-34.132812 238.933594v-204.800781h17.066406v187.734374h128v17.066407zm0 0" fill="url(#j)"/><path d="m25.601562 256c-.023437-30.890625 7.96875-61.253906 23.191407-88.132812l11.835937 23.679687c2.105469 4.21875 7.234375 5.929687 11.453125 3.824219 4.214844-2.109375 5.929688-7.234375 3.820313-11.453125l-19.429688-38.851563h-47.9375c-4.714844 0-8.535156 3.820313-8.535156 8.535156 0 4.710938 3.820312 8.53125 8.535156 8.53125h23.890625c-49.007812 89.976563-20.566406 202.507813 65.308594 258.390626l9.324219-14.335938c-50.867188-33.007812-81.535156-89.550781-81.457032-150.1875zm0 0" fill="url(#k)"/><path d="m381.578125 341.257812c28.9375-59.785156 25.597656-130.164062-8.875-186.941406l-14.601563 8.832032c49.011719 80.9375 26.652344 186.035156-51.0625 240.007812l-.375-26.453125c-.066406-4.664063-3.867187-8.414063-8.535156-8.414063h-.128906c-4.710938.070313-8.472656 3.949219-8.402344 8.660157v.003906l.613282 43.425781 43.179687 20.820313c1.152344.566406 2.417969.855469 3.703125.851562 4.710938-.003906 8.527344-3.828125 8.527344-8.539062-.003906-3.269531-1.875-6.246094-4.816406-7.671875l-21.527344-10.378906c26.660156-19.117188 48.082031-44.636719 62.300781-74.203126zm0 0" fill="url(#l)"/><path d="m187.734375 187.734375h17.066406v25.597656h-17.066406zm0 0" fill="url(#m)"/></svg>