<svg height="512pt" viewBox="0 0 512 512.0011" width="512pt" xmlns="http://www.w3.org/2000/svg" xmlns:xlink="http://www.w3.org/1999/xlink"><linearGradient id="a"><stop offset="0" stop-color="#662d91"/><stop offset=".437" stop-color="#3873b3"/><stop offset="1" stop-color="#00c9dd"/></linearGradient><linearGradient id="b" gradientTransform="matrix(1.099725 0 0 -1.099725 .00055 504.202951)" gradientUnits="userSpaceOnUse" x1="-20.695" x2="384.1111" xlink:href="#a" y1="370.542" y2="-34.2641"/><linearGradient id="c" gradientTransform="matrix(1.099725 0 0 -1.099725 .00055 504.202951)" gradientUnits="userSpaceOnUse" x1="223.7301" x2="628.5362" xlink:href="#a" y1="614.9671" y2="210.161"/><linearGradient id="d" gradientTransform="matrix(1.099725 0 0 -1.099725 .00055 504.202951)" gradientUnits="userSpaceOnUse" x1="208.2111" x2="613.0172" xlink:href="#a" y1="599.4481" y2="194.642"/><linearGradient id="e" gradientTransform="matrix(1.099725 0 0 -1.099725 .00055 504.202951)" gradientUnits="userSpaceOnUse" x1="134.4957" x2="539.3018" xlink:href="#a" y1="525.7327" y2="120.9266"/><linearGradient id="f" gradientTransform="matrix(1.099725 0 0 -1.099725 .00055 504.202951)" gradientUnits="userSpaceOnUse" x1="118.9766" x2="523.7828" xlink:href="#a" y1="510.2137" y2="105.4075"/><linearGradient id="g" gradientTransform="matrix(1.099725 0 0 -1.099725 .00055 504.202951)" gradientUnits="userSpaceOnUse" x1="62.7202" x2="467.5263" xlink:href="#a" y1="453.9572" y2="49.1511"/><linearGradient id="h" gradientTransform="matrix(1.099725 0 0 -1.099725 .00055 504.202951)" gradientUnits="userSpaceOnUse" x1="51.0809" x2="455.887" xlink:href="#a" y1="442.3179" y2="37.5118"/><linearGradient id="i" gradientTransform="matrix(1.099725 0 0 -1.099725 .00055 504.202951)" gradientUnits="userSpaceOnUse" x1="192.692" x2="597.4982" xlink:href="#a" y1="583.929" y2="179.1229"/><linearGradient id="j" gradientTransform="matrix(1.099725 0 0 -1.099725 .00055 504.202951)" gradientUnits="userSpaceOnUse" x1="35.5619" x2="440.368" xlink:href="#a" y1="426.7989" y2="21.9927"/><path d="m424.167969 156.101562-25.601563-25.601562c-1.601562-1.601562-3.769531-2.5-6.035156-2.5h-375.464844v-25.601562h102.402344c2.261719 0 4.429688-.898438 6.03125-2.5l25.601562-25.601563c3.328126-3.332031 3.328126-8.730469 0-12.066406l-25.601562-25.597657c-1.601562-1.601562-3.769531-2.5-6.03125-2.5h-102.402344v-25.597656c0-4.714844-3.820312-8.535156-8.53125-8.535156-4.714844 0-8.535156 3.820312-8.535156 8.535156v494.933594c0 4.710938 3.820312 8.53125 8.535156 8.53125 4.710938 0 8.53125-3.820312 8.53125-8.53125v-25.601562h298.667969c2.265625 0 4.433594-.898438 6.035156-2.5l25.597657-25.601563c3.332031-3.332031 3.332031-8.734375 0-12.066406l-25.597657-25.601563c-1.601562-1.597656-3.769531-2.5-6.035156-2.5h-298.667969v-25.601562h145.066406c2.265626 0 4.433594-.898438 6.035157-2.5l25.601562-25.601563c3.328125-3.332031 3.328125-8.730469 0-12.066406l-25.601562-25.597656c-1.601563-1.601563-3.769531-2.5-6.035157-2.5h-145.066406v-25.601563h273.066406c2.265626 0 4.433594-.898437 6.035157-2.5l25.597656-25.601562c3.332031-3.332032 3.332031-8.734375 0-12.066406l-25.597656-25.601563c-1.601563-1.597656-3.769531-2.5-6.035157-2.5h-273.066406v-25.601563h375.46875c2.261719 0 4.433594-.898437 6.03125-2.5l25.601563-25.601562c3.328125-3.320312 3.328125-8.722656 0-12.054688zm-308.234375-104.902343 17.066406 17.066406-17.066406 17.066406h-98.867188v-34.132812zm196.269531 375.46875 17.066406 17.066406-17.066406 17.066406h-295.136719v-34.132812zm-153.601563-93.867188 17.066407 17.066407-17.066407 17.066406h-141.535156v-34.132813zm128-93.867187 17.066407 17.066406-17.066407 17.066406h-269.535156v-34.132812zm102.398438-59.734375h-371.933594v-34.132813h371.933594l17.066406 17.066406zm0 0" fill="url(#b)"/><path d="m392.535156 25.601562h119.464844v17.066407h-119.464844zm0 0" fill="url(#c)"/><path d="m392.535156 59.734375h119.464844v17.066406h-119.464844zm0 0" fill="url(#d)"/><path d="m409.601562 230.398438h102.398438v17.066406h-102.398438zm0 0" fill="url(#e)"/><path d="m409.601562 264.535156h102.398438v17.066406h-102.398438zm0 0" fill="url(#f)"/><path d="m435.199219 401.066406h76.800781v17.066406h-76.800781zm0 0" fill="url(#g)"/><path d="m452.265625 435.199219h59.734375v17.066406h-59.734375zm0 0" fill="url(#h)"/><path d="m392.535156 93.867188h119.464844v17.066406h-119.464844zm0 0" fill="url(#i)"/><path d="m452.265625 469.332031h59.734375v17.066407h-59.734375zm0 0" fill="url(#j)"/></svg>