<svg width="279" height="399" viewBox="0 0 279 399" fill="none" xmlns="http://www.w3.org/2000/svg">
<path fill-rule="evenodd" clip-rule="evenodd" d="M100.919 18.2902C97.4722 30.9923 92.9801 59.5438 97.564 64.0225H126.564C126.567 63.971 126.57 63.9197 126.573 63.8685C137.321 62.679 145.681 53.5658 145.681 42.5V21.5C145.681 9.62588 136.055 0 124.181 0H122.181C111.398 0 102.469 7.93854 100.919 18.2902Z" fill="#191847"/>
<path fill-rule="evenodd" clip-rule="evenodd" d="M134.419 38.4901C139.027 33.0814 142.146 26.4529 141.624 19.0255C140.123 -2.37502 110.333 2.33281 104.538 13.1339C98.7431 23.9351 99.4317 51.333 106.921 53.2635C109.908 54.0333 116.27 52.1475 122.746 48.2443L118.681 77H142.681L134.419 38.4901Z" fill="#D4A181"/>
<path fill-rule="evenodd" clip-rule="evenodd" d="M127.931 34.8748C126.825 46.7528 127.268 60.3173 130.564 63.5371H159.564C161.18 35.4635 145.564 46.3349 145.564 19.9028C144.59 18.9515 143.67 18.01 142.76 17.1981L142.792 16.4207C137.771 6.14023 131.4 1 123.68 1C112.1 1 108.445 6.38832 105.333 10.9631C107.66 18.9482 116.691 20.1322 124.715 25.1095C125.661 24.341 126.868 23.8804 128.181 23.8804C131.219 23.8804 133.681 26.3428 133.681 29.3804C133.681 32.418 131.219 34.8804 128.181 34.8804C128.097 34.8804 128.014 34.8785 127.931 34.8748Z" fill="#191847"/>
<path fill-rule="evenodd" clip-rule="evenodd" d="M181.273 258.088C157.284 264.798 136.587 268.153 119.182 268.153C101.776 268.153 85.6096 262.986 70.6812 252.653C94.157 245.766 113.49 242.323 128.681 242.323C143.872 242.323 161.403 247.578 181.273 258.088Z" fill="#1F28CF"/>
<path fill-rule="evenodd" clip-rule="evenodd" d="M98.4144 277.824C98.6457 277.477 98.8411 277.098 98.996 276.689C102.203 268.208 153.564 176.726 158.681 160H100.855C96.9647 172.717 79.4542 252.52 76.9899 268.442C69.2146 293.557 53.206 374.895 51.1623 380.53C49.0125 386.458 61.109 392.633 64.3325 385.346C69.4616 373.75 81.6826 341.665 87.1241 322.074C92.2255 303.708 96.3794 287.184 98.4144 277.824Z" fill="#BA8B72"/>
<path fill-rule="evenodd" clip-rule="evenodd" d="M145.724 288.994C169.206 294.928 255.097 305.658 260.991 307.341C267.055 309.072 272.371 296.574 264.877 293.867C252.951 289.559 220.092 279.606 200.169 275.544C184.145 272.277 169.522 269.611 159.705 268.05C160.537 240.473 164.338 174.294 161.847 160H110.681C113.071 173.707 133.271 273.718 137.026 283.729C138.217 287.302 141.772 288.882 145.724 288.994Z" fill="#D4A181"/>
<path fill-rule="evenodd" clip-rule="evenodd" d="M264.332 290.539C267.468 289.956 269.765 289.793 271.226 290.05C273.001 290.363 275.541 291.116 278.843 292.309C278.48 294.369 275.216 312.884 269.049 347.854C264.023 348.456 261.594 347.168 261.762 343.991C261.929 340.814 262.041 338.17 262.098 336.059L255.141 308.213C255.007 307.677 255.332 307.134 255.868 307C255.877 306.998 255.887 306.996 255.896 306.994L260.214 306.044C262.065 303.402 263.149 301.181 263.466 299.381C263.724 297.919 263.49 295.795 262.763 293.01L262.763 293.01C262.484 291.941 263.124 290.849 264.193 290.57C264.239 290.558 264.285 290.548 264.332 290.539Z" fill="#E4E4E4"/>
<path fill-rule="evenodd" clip-rule="evenodd" d="M68.0031 384.402C69.1219 387.388 69.6812 389.623 69.6812 391.106C69.6812 392.909 69.3808 395.54 68.78 399C66.688 399 47.8874 399 12.3782 399C10.9125 394.154 11.7586 391.539 14.9164 391.152C18.0742 390.766 20.6975 390.417 22.7862 390.106L49.0012 378.419C49.5057 378.194 50.0969 378.421 50.3218 378.925C50.3256 378.934 50.3293 378.942 50.3329 378.951L52.018 383.039C54.9413 384.403 57.3169 385.085 59.1445 385.085C60.6295 385.085 62.6802 384.485 65.2968 383.285L65.2967 383.285C66.3008 382.825 67.488 383.266 67.9483 384.27C67.9681 384.313 67.9864 384.357 68.0031 384.402Z" fill="#E4E4E4"/>
<path fill-rule="evenodd" clip-rule="evenodd" d="M161.681 160C139.134 153.549 117.801 153.549 97.6812 160C90.6812 191.937 73.6723 204.613 70.6812 253.579C104.681 270.473 146.681 241.53 181.681 258.005C191.681 234.961 177.681 179.465 161.681 160Z" fill="#2B44FF"/>
<path fill-rule="evenodd" clip-rule="evenodd" d="M64.6812 120.311L25.1983 114.925C17.3002 110.532 10.0342 107.558 3.40051 106.003C1.53372 105.948 -1.43599 106.627 2.98805 110.315C7.4121 114.003 11.9009 118.083 11.1127 120.051C10.3245 122.02 6.21016 121.287 5.52858 124.315C5.07419 126.333 11.7514 126.661 25.5604 125.299L57.5973 138L64.6812 120.311ZM188.711 129.45L166.814 129.532C190.825 183.566 203.345 211.857 204.373 214.406C206.687 220.14 201.791 228.874 199.697 233.567C206.517 236.619 205.79 225.317 214.393 229.319C222.246 232.973 228.22 239.592 237.292 233.994C238.408 233.306 239.63 230.715 236.677 228.69C229.319 223.645 218.716 214.815 217.283 211.908C215.33 207.945 205.806 180.459 188.711 129.45Z" fill="#D4A181"/>
<path fill-rule="evenodd" clip-rule="evenodd" d="M128.732 60L111.587 61.1422C107.364 99.3434 84.3648 123.473 32.8702 115.304L26.0289 164.499C74.1584 170.719 116.368 151.45 125.019 99.2785C127.258 85.7729 129.026 71.7178 128.732 60Z" fill="#AFB9C5"/>
<path fill-rule="evenodd" clip-rule="evenodd" d="M137.19 55.0159L111.214 60.9653C111.214 105.644 96.9812 134.15 89.6812 167H159.838C160.826 178.351 161.433 190.018 161.749 202H214.28C202.376 138.664 177.251 89.664 138.905 55H137.204L137.19 55.0159Z" fill="#C5CFD6"/>
<path fill-rule="evenodd" clip-rule="evenodd" d="M148.769 103.259C150.577 131.101 149.513 152.347 145.579 167H159.838C157.88 144.514 154.425 123.267 148.769 103.259V103.259Z" fill="black" fill-opacity="0.1"/>
</svg>
